<mxfile host="app.diagrams.net" modified="2021-05-02T10:38:05.120Z" agent="5.0 (Windows NT 10.0; Win64; x64) AppleWebKit/537.36 (KHTML, like Gecko) Chrome/90.0.4430.93 Safari/537.36" etag="3STgZVihUKwgR8wQUNSc" version="14.6.9" type="github" pages="3">
  <diagram id="dmMNkS805SkaxV6rb-UH" name="Page-1">
    <mxGraphModel dx="782" dy="437" grid="1" gridSize="10" guides="1" tooltips="1" connect="1" arrows="1" fold="1" page="1" pageScale="1" pageWidth="827" pageHeight="1169" math="0" shadow="0">
      <root>
        <mxCell id="0" />
        <mxCell id="1" parent="0" />
        <mxCell id="BrKykaamPkqeGsCS6sWr-1" value="App Nghe Nhạc" style="rounded=0;whiteSpace=wrap;html=1;" parent="1" vertex="1">
          <mxGeometry x="320" y="100" width="120" height="60" as="geometry" />
        </mxCell>
        <mxCell id="BrKykaamPkqeGsCS6sWr-4" value="" style="endArrow=none;html=1;entryX=0.5;entryY=1;entryDx=0;entryDy=0;" parent="1" target="BrKykaamPkqeGsCS6sWr-1" edge="1">
          <mxGeometry width="50" height="50" relative="1" as="geometry">
            <mxPoint x="380" y="200" as="sourcePoint" />
            <mxPoint x="430" y="200" as="targetPoint" />
          </mxGeometry>
        </mxCell>
        <mxCell id="BrKykaamPkqeGsCS6sWr-5" value="" style="endArrow=none;html=1;" parent="1" edge="1">
          <mxGeometry width="50" height="50" relative="1" as="geometry">
            <mxPoint x="200" y="200" as="sourcePoint" />
            <mxPoint x="560" y="200" as="targetPoint" />
          </mxGeometry>
        </mxCell>
        <mxCell id="BrKykaamPkqeGsCS6sWr-6" value="" style="endArrow=none;html=1;" parent="1" edge="1">
          <mxGeometry width="50" height="50" relative="1" as="geometry">
            <mxPoint x="200" y="200" as="sourcePoint" />
            <mxPoint x="200" y="240" as="targetPoint" />
          </mxGeometry>
        </mxCell>
        <mxCell id="BrKykaamPkqeGsCS6sWr-7" value="" style="endArrow=none;html=1;" parent="1" edge="1">
          <mxGeometry width="50" height="50" relative="1" as="geometry">
            <mxPoint x="560" y="200" as="sourcePoint" />
            <mxPoint x="560" y="240" as="targetPoint" />
          </mxGeometry>
        </mxCell>
        <mxCell id="BrKykaamPkqeGsCS6sWr-8" value="Nghe nhạc online" style="rounded=0;whiteSpace=wrap;html=1;" parent="1" vertex="1">
          <mxGeometry x="140" y="240" width="120" height="60" as="geometry" />
        </mxCell>
        <mxCell id="BrKykaamPkqeGsCS6sWr-9" value="Nghe nhạc offline" style="rounded=0;whiteSpace=wrap;html=1;" parent="1" vertex="1">
          <mxGeometry x="500" y="240" width="120" height="60" as="geometry" />
        </mxCell>
        <mxCell id="BrKykaamPkqeGsCS6sWr-10" value="" style="endArrow=none;html=1;exitX=0.25;exitY=1;exitDx=0;exitDy=0;" parent="1" source="BrKykaamPkqeGsCS6sWr-8" edge="1">
          <mxGeometry width="50" height="50" relative="1" as="geometry">
            <mxPoint x="380" y="250" as="sourcePoint" />
            <mxPoint x="170" y="520" as="targetPoint" />
            <Array as="points" />
          </mxGeometry>
        </mxCell>
        <mxCell id="BrKykaamPkqeGsCS6sWr-11" value="" style="endArrow=none;html=1;" parent="1" edge="1">
          <mxGeometry width="50" height="50" relative="1" as="geometry">
            <mxPoint x="170" y="340" as="sourcePoint" />
            <mxPoint x="200" y="340" as="targetPoint" />
          </mxGeometry>
        </mxCell>
        <mxCell id="BrKykaamPkqeGsCS6sWr-13" value="Nghe nhạc trên hệ thống" style="text;html=1;strokeColor=none;fillColor=none;align=center;verticalAlign=middle;whiteSpace=wrap;rounded=0;" parent="1" vertex="1">
          <mxGeometry x="200" y="320" width="110" height="40" as="geometry" />
        </mxCell>
        <mxCell id="BrKykaamPkqeGsCS6sWr-14" value="" style="endArrow=none;html=1;" parent="1" edge="1">
          <mxGeometry width="50" height="50" relative="1" as="geometry">
            <mxPoint x="170" y="400" as="sourcePoint" />
            <mxPoint x="200" y="400" as="targetPoint" />
          </mxGeometry>
        </mxCell>
        <mxCell id="BrKykaamPkqeGsCS6sWr-15" value="Tìm kiếm bài hát" style="text;html=1;strokeColor=none;fillColor=none;align=center;verticalAlign=middle;whiteSpace=wrap;rounded=0;" parent="1" vertex="1">
          <mxGeometry x="205" y="380" width="100" height="40" as="geometry" />
        </mxCell>
        <mxCell id="BrKykaamPkqeGsCS6sWr-16" value="" style="endArrow=none;html=1;" parent="1" edge="1">
          <mxGeometry width="50" height="50" relative="1" as="geometry">
            <mxPoint x="170" y="460" as="sourcePoint" />
            <mxPoint x="200" y="460" as="targetPoint" />
          </mxGeometry>
        </mxCell>
        <mxCell id="BrKykaamPkqeGsCS6sWr-17" value="Xem bảng xếp hạng bài hát" style="text;html=1;strokeColor=none;fillColor=none;align=center;verticalAlign=middle;whiteSpace=wrap;rounded=0;" parent="1" vertex="1">
          <mxGeometry x="205" y="440" width="120" height="40" as="geometry" />
        </mxCell>
        <mxCell id="BrKykaamPkqeGsCS6sWr-18" value="Tải bài hát" style="text;html=1;strokeColor=none;fillColor=none;align=center;verticalAlign=middle;whiteSpace=wrap;rounded=0;" parent="1" vertex="1">
          <mxGeometry x="205" y="510" width="110" height="30" as="geometry" />
        </mxCell>
        <mxCell id="BrKykaamPkqeGsCS6sWr-19" value="" style="endArrow=none;html=1;" parent="1" edge="1">
          <mxGeometry width="50" height="50" relative="1" as="geometry">
            <mxPoint x="170" y="520" as="sourcePoint" />
            <mxPoint x="200" y="520" as="targetPoint" />
          </mxGeometry>
        </mxCell>
        <mxCell id="BrKykaamPkqeGsCS6sWr-20" value="" style="endArrow=none;html=1;entryX=0.25;entryY=1;entryDx=0;entryDy=0;" parent="1" target="BrKykaamPkqeGsCS6sWr-9" edge="1">
          <mxGeometry width="50" height="50" relative="1" as="geometry">
            <mxPoint x="530" y="520" as="sourcePoint" />
            <mxPoint x="430" y="370" as="targetPoint" />
          </mxGeometry>
        </mxCell>
        <mxCell id="BrKykaamPkqeGsCS6sWr-21" value="" style="endArrow=none;html=1;" parent="1" edge="1">
          <mxGeometry width="50" height="50" relative="1" as="geometry">
            <mxPoint x="530" y="340" as="sourcePoint" />
            <mxPoint x="560" y="340" as="targetPoint" />
          </mxGeometry>
        </mxCell>
        <mxCell id="BrKykaamPkqeGsCS6sWr-22" value="Nghe bài hát" style="text;html=1;strokeColor=none;fillColor=none;align=center;verticalAlign=middle;whiteSpace=wrap;rounded=0;" parent="1" vertex="1">
          <mxGeometry x="560" y="325" width="100" height="30" as="geometry" />
        </mxCell>
        <mxCell id="BrKykaamPkqeGsCS6sWr-23" value="" style="endArrow=none;html=1;" parent="1" edge="1">
          <mxGeometry width="50" height="50" relative="1" as="geometry">
            <mxPoint x="530" y="400" as="sourcePoint" />
            <mxPoint x="560" y="400" as="targetPoint" />
          </mxGeometry>
        </mxCell>
        <mxCell id="BrKykaamPkqeGsCS6sWr-24" value="Xóa bài hát" style="text;html=1;strokeColor=none;fillColor=none;align=center;verticalAlign=middle;whiteSpace=wrap;rounded=0;" parent="1" vertex="1">
          <mxGeometry x="570" y="380" width="80" height="40" as="geometry" />
        </mxCell>
        <mxCell id="BrKykaamPkqeGsCS6sWr-25" value="" style="endArrow=none;html=1;" parent="1" edge="1">
          <mxGeometry width="50" height="50" relative="1" as="geometry">
            <mxPoint x="530" y="460" as="sourcePoint" />
            <mxPoint x="560" y="460" as="targetPoint" />
          </mxGeometry>
        </mxCell>
        <mxCell id="BrKykaamPkqeGsCS6sWr-26" value="Text" style="text;html=1;strokeColor=none;fillColor=none;align=center;verticalAlign=middle;whiteSpace=wrap;rounded=0;" parent="1" vertex="1">
          <mxGeometry x="570" y="450" width="80" height="30" as="geometry" />
        </mxCell>
      </root>
    </mxGraphModel>
  </diagram>
  <diagram id="fwr1nD1LG8ngcOjBI71h" name="Page-2">
    <mxGraphModel dx="1609" dy="437" grid="1" gridSize="10" guides="1" tooltips="1" connect="1" arrows="1" fold="1" page="1" pageScale="1" pageWidth="827" pageHeight="1169" math="0" shadow="0">
      <root>
        <mxCell id="25V5unOkGxOZ0rZsctyj-0" />
        <mxCell id="25V5unOkGxOZ0rZsctyj-1" parent="25V5unOkGxOZ0rZsctyj-0" />
        <mxCell id="25V5unOkGxOZ0rZsctyj-2" value="Website bán đồ lưu niệm" style="rounded=0;whiteSpace=wrap;html=1;" parent="25V5unOkGxOZ0rZsctyj-1" vertex="1">
          <mxGeometry x="320" y="60" width="120" height="60" as="geometry" />
        </mxCell>
        <mxCell id="25V5unOkGxOZ0rZsctyj-3" value="" style="endArrow=none;html=1;exitX=0.5;exitY=1;exitDx=0;exitDy=0;" parent="25V5unOkGxOZ0rZsctyj-1" source="25V5unOkGxOZ0rZsctyj-2" edge="1">
          <mxGeometry width="50" height="50" relative="1" as="geometry">
            <mxPoint x="380" y="250" as="sourcePoint" />
            <mxPoint x="380" y="160" as="targetPoint" />
          </mxGeometry>
        </mxCell>
        <mxCell id="25V5unOkGxOZ0rZsctyj-5" value="Trang Chủ người dùng" style="rounded=0;whiteSpace=wrap;html=1;" parent="25V5unOkGxOZ0rZsctyj-1" vertex="1">
          <mxGeometry x="320" y="160" width="120" height="60" as="geometry" />
        </mxCell>
        <mxCell id="C2dAN88aSZc8cmCPh_5t-5" value="" style="endArrow=none;html=1;" edge="1" parent="25V5unOkGxOZ0rZsctyj-1">
          <mxGeometry width="50" height="50" relative="1" as="geometry">
            <mxPoint x="20" y="260" as="sourcePoint" />
            <mxPoint x="380" y="260" as="targetPoint" />
          </mxGeometry>
        </mxCell>
        <mxCell id="C2dAN88aSZc8cmCPh_5t-6" value="" style="endArrow=none;html=1;" edge="1" parent="25V5unOkGxOZ0rZsctyj-1">
          <mxGeometry width="50" height="50" relative="1" as="geometry">
            <mxPoint x="20" y="260" as="sourcePoint" />
            <mxPoint x="20" y="320" as="targetPoint" />
          </mxGeometry>
        </mxCell>
        <mxCell id="C2dAN88aSZc8cmCPh_5t-7" value="Quản lý sản phẩm" style="rounded=0;whiteSpace=wrap;html=1;" vertex="1" parent="25V5unOkGxOZ0rZsctyj-1">
          <mxGeometry x="-40" y="320" width="120" height="60" as="geometry" />
        </mxCell>
        <mxCell id="C2dAN88aSZc8cmCPh_5t-8" value="" style="endArrow=none;html=1;exitX=0.5;exitY=1;exitDx=0;exitDy=0;" edge="1" parent="25V5unOkGxOZ0rZsctyj-1" source="25V5unOkGxOZ0rZsctyj-5">
          <mxGeometry width="50" height="50" relative="1" as="geometry">
            <mxPoint x="260" y="250" as="sourcePoint" />
            <mxPoint x="380" y="260" as="targetPoint" />
          </mxGeometry>
        </mxCell>
      </root>
    </mxGraphModel>
  </diagram>
  <diagram id="o2GJjiBsIi-EHEu6j26o" name="Page-3">
    <mxGraphModel dx="1303" dy="1897" grid="1" gridSize="10" guides="1" tooltips="1" connect="1" arrows="1" fold="1" page="1" pageScale="1" pageWidth="827" pageHeight="1169" math="0" shadow="0">
      <root>
        <mxCell id="CwdzaLwRy5O3PZ2pQZOu-0" />
        <mxCell id="CwdzaLwRy5O3PZ2pQZOu-1" parent="CwdzaLwRy5O3PZ2pQZOu-0" />
        <mxCell id="CwdzaLwRy5O3PZ2pQZOu-9" value="Trang chủ" style="rounded=0;whiteSpace=wrap;html=1;" vertex="1" parent="CwdzaLwRy5O3PZ2pQZOu-1">
          <mxGeometry x="900" y="-60" width="120" height="60" as="geometry" />
        </mxCell>
        <mxCell id="CwdzaLwRy5O3PZ2pQZOu-12" value="Giới thiệu" style="rounded=0;whiteSpace=wrap;html=1;" vertex="1" parent="CwdzaLwRy5O3PZ2pQZOu-1">
          <mxGeometry x="420" y="140" width="120" height="60" as="geometry" />
        </mxCell>
        <mxCell id="CwdzaLwRy5O3PZ2pQZOu-13" value="Danh sách sản phẩm" style="rounded=0;whiteSpace=wrap;html=1;" vertex="1" parent="CwdzaLwRy5O3PZ2pQZOu-1">
          <mxGeometry x="580" y="140" width="120" height="60" as="geometry" />
        </mxCell>
        <mxCell id="CwdzaLwRy5O3PZ2pQZOu-14" value="Danh sách thể loại" style="rounded=0;whiteSpace=wrap;html=1;" vertex="1" parent="CwdzaLwRy5O3PZ2pQZOu-1">
          <mxGeometry x="740" y="140" width="120" height="60" as="geometry" />
        </mxCell>
        <mxCell id="CwdzaLwRy5O3PZ2pQZOu-15" value="Chi tiết sản phẩm&amp;nbsp;" style="rounded=0;whiteSpace=wrap;html=1;" vertex="1" parent="CwdzaLwRy5O3PZ2pQZOu-1">
          <mxGeometry x="580" y="260" width="120" height="60" as="geometry" />
        </mxCell>
        <mxCell id="CwdzaLwRy5O3PZ2pQZOu-16" value="Hệ thống cửa hàng" style="rounded=0;whiteSpace=wrap;html=1;" vertex="1" parent="CwdzaLwRy5O3PZ2pQZOu-1">
          <mxGeometry x="250" y="140" width="120" height="60" as="geometry" />
        </mxCell>
        <mxCell id="CwdzaLwRy5O3PZ2pQZOu-17" value="Giỏ hàng" style="rounded=0;whiteSpace=wrap;html=1;" vertex="1" parent="CwdzaLwRy5O3PZ2pQZOu-1">
          <mxGeometry x="900" y="140" width="120" height="60" as="geometry" />
        </mxCell>
        <mxCell id="CwdzaLwRy5O3PZ2pQZOu-18" value="Thanh toán" style="rounded=0;whiteSpace=wrap;html=1;" vertex="1" parent="CwdzaLwRy5O3PZ2pQZOu-1">
          <mxGeometry x="900" y="260" width="120" height="60" as="geometry" />
        </mxCell>
        <mxCell id="CwdzaLwRy5O3PZ2pQZOu-19" value="Đăng nhập" style="rounded=0;whiteSpace=wrap;html=1;" vertex="1" parent="CwdzaLwRy5O3PZ2pQZOu-1">
          <mxGeometry x="1060" y="140" width="120" height="60" as="geometry" />
        </mxCell>
        <mxCell id="CwdzaLwRy5O3PZ2pQZOu-20" value="Đăng kí" style="rounded=0;whiteSpace=wrap;html=1;" vertex="1" parent="CwdzaLwRy5O3PZ2pQZOu-1">
          <mxGeometry x="1220" y="140" width="120" height="60" as="geometry" />
        </mxCell>
        <mxCell id="CwdzaLwRy5O3PZ2pQZOu-21" value="Thông tin người dùng" style="rounded=0;whiteSpace=wrap;html=1;" vertex="1" parent="CwdzaLwRy5O3PZ2pQZOu-1">
          <mxGeometry x="1380" y="140" width="120" height="60" as="geometry" />
        </mxCell>
        <mxCell id="CwdzaLwRy5O3PZ2pQZOu-22" value="Đổi mật khẩu" style="rounded=0;whiteSpace=wrap;html=1;" vertex="1" parent="CwdzaLwRy5O3PZ2pQZOu-1">
          <mxGeometry x="1300" y="320" width="120" height="60" as="geometry" />
        </mxCell>
        <mxCell id="CwdzaLwRy5O3PZ2pQZOu-23" value="Đổi thông tin" style="rounded=0;whiteSpace=wrap;html=1;" vertex="1" parent="CwdzaLwRy5O3PZ2pQZOu-1">
          <mxGeometry x="1460" y="320" width="120" height="60" as="geometry" />
        </mxCell>
        <mxCell id="CwdzaLwRy5O3PZ2pQZOu-24" value="" style="endArrow=none;html=1;" edge="1" parent="CwdzaLwRy5O3PZ2pQZOu-1">
          <mxGeometry width="50" height="50" relative="1" as="geometry">
            <mxPoint x="310" y="80" as="sourcePoint" />
            <mxPoint x="1440" y="80" as="targetPoint" />
          </mxGeometry>
        </mxCell>
        <mxCell id="CwdzaLwRy5O3PZ2pQZOu-25" value="" style="endArrow=none;html=1;entryX=0.5;entryY=0;entryDx=0;entryDy=0;" edge="1" parent="CwdzaLwRy5O3PZ2pQZOu-1" target="CwdzaLwRy5O3PZ2pQZOu-16">
          <mxGeometry width="50" height="50" relative="1" as="geometry">
            <mxPoint x="310" y="80" as="sourcePoint" />
            <mxPoint x="250" y="150" as="targetPoint" />
          </mxGeometry>
        </mxCell>
        <mxCell id="CwdzaLwRy5O3PZ2pQZOu-28" value="" style="endArrow=none;html=1;entryX=0.5;entryY=0;entryDx=0;entryDy=0;" edge="1" parent="CwdzaLwRy5O3PZ2pQZOu-1" target="CwdzaLwRy5O3PZ2pQZOu-12">
          <mxGeometry width="50" height="50" relative="1" as="geometry">
            <mxPoint x="480" y="80" as="sourcePoint" />
            <mxPoint x="600" y="150" as="targetPoint" />
          </mxGeometry>
        </mxCell>
        <mxCell id="CwdzaLwRy5O3PZ2pQZOu-29" value="" style="endArrow=none;html=1;entryX=0.5;entryY=0;entryDx=0;entryDy=0;" edge="1" parent="CwdzaLwRy5O3PZ2pQZOu-1" target="CwdzaLwRy5O3PZ2pQZOu-13">
          <mxGeometry width="50" height="50" relative="1" as="geometry">
            <mxPoint x="640" y="80" as="sourcePoint" />
            <mxPoint x="600" y="150" as="targetPoint" />
          </mxGeometry>
        </mxCell>
        <mxCell id="CwdzaLwRy5O3PZ2pQZOu-30" value="" style="endArrow=none;html=1;entryX=0.5;entryY=0;entryDx=0;entryDy=0;" edge="1" parent="CwdzaLwRy5O3PZ2pQZOu-1" target="CwdzaLwRy5O3PZ2pQZOu-14">
          <mxGeometry width="50" height="50" relative="1" as="geometry">
            <mxPoint x="800" y="80" as="sourcePoint" />
            <mxPoint x="920" y="150" as="targetPoint" />
          </mxGeometry>
        </mxCell>
        <mxCell id="CwdzaLwRy5O3PZ2pQZOu-31" value="" style="endArrow=none;html=1;" edge="1" parent="CwdzaLwRy5O3PZ2pQZOu-1" target="CwdzaLwRy5O3PZ2pQZOu-17">
          <mxGeometry width="50" height="50" relative="1" as="geometry">
            <mxPoint x="960" y="80" as="sourcePoint" />
            <mxPoint x="1120" y="150" as="targetPoint" />
          </mxGeometry>
        </mxCell>
        <mxCell id="CwdzaLwRy5O3PZ2pQZOu-32" value="" style="endArrow=none;html=1;" edge="1" parent="CwdzaLwRy5O3PZ2pQZOu-1">
          <mxGeometry width="50" height="50" relative="1" as="geometry">
            <mxPoint x="1120" y="80" as="sourcePoint" />
            <mxPoint x="1120" y="140" as="targetPoint" />
          </mxGeometry>
        </mxCell>
        <mxCell id="CwdzaLwRy5O3PZ2pQZOu-33" value="" style="endArrow=none;html=1;entryX=0.5;entryY=0;entryDx=0;entryDy=0;" edge="1" parent="CwdzaLwRy5O3PZ2pQZOu-1" target="CwdzaLwRy5O3PZ2pQZOu-20">
          <mxGeometry width="50" height="50" relative="1" as="geometry">
            <mxPoint x="1280" y="80" as="sourcePoint" />
            <mxPoint x="1340" y="150" as="targetPoint" />
          </mxGeometry>
        </mxCell>
        <mxCell id="CwdzaLwRy5O3PZ2pQZOu-34" value="" style="endArrow=none;html=1;exitX=0.5;exitY=0;exitDx=0;exitDy=0;" edge="1" parent="CwdzaLwRy5O3PZ2pQZOu-1" source="CwdzaLwRy5O3PZ2pQZOu-21">
          <mxGeometry width="50" height="50" relative="1" as="geometry">
            <mxPoint x="1290" y="200" as="sourcePoint" />
            <mxPoint x="1440" y="80" as="targetPoint" />
          </mxGeometry>
        </mxCell>
        <mxCell id="CwdzaLwRy5O3PZ2pQZOu-35" value="" style="endArrow=none;html=1;exitX=0.5;exitY=1;exitDx=0;exitDy=0;" edge="1" parent="CwdzaLwRy5O3PZ2pQZOu-1" source="CwdzaLwRy5O3PZ2pQZOu-21">
          <mxGeometry width="50" height="50" relative="1" as="geometry">
            <mxPoint x="1290" y="300" as="sourcePoint" />
            <mxPoint x="1440" y="240" as="targetPoint" />
          </mxGeometry>
        </mxCell>
        <mxCell id="CwdzaLwRy5O3PZ2pQZOu-36" value="" style="endArrow=none;html=1;" edge="1" parent="CwdzaLwRy5O3PZ2pQZOu-1">
          <mxGeometry width="50" height="50" relative="1" as="geometry">
            <mxPoint x="1360" y="240" as="sourcePoint" />
            <mxPoint x="1440" y="240" as="targetPoint" />
          </mxGeometry>
        </mxCell>
        <mxCell id="CwdzaLwRy5O3PZ2pQZOu-37" value="" style="endArrow=none;html=1;entryX=0.5;entryY=0;entryDx=0;entryDy=0;" edge="1" parent="CwdzaLwRy5O3PZ2pQZOu-1" target="CwdzaLwRy5O3PZ2pQZOu-22">
          <mxGeometry width="50" height="50" relative="1" as="geometry">
            <mxPoint x="1360" y="240" as="sourcePoint" />
            <mxPoint x="1340" y="250" as="targetPoint" />
          </mxGeometry>
        </mxCell>
        <mxCell id="CwdzaLwRy5O3PZ2pQZOu-38" value="" style="endArrow=none;html=1;" edge="1" parent="CwdzaLwRy5O3PZ2pQZOu-1">
          <mxGeometry width="50" height="50" relative="1" as="geometry">
            <mxPoint x="1440" y="240" as="sourcePoint" />
            <mxPoint x="1520" y="240" as="targetPoint" />
          </mxGeometry>
        </mxCell>
        <mxCell id="CwdzaLwRy5O3PZ2pQZOu-39" value="" style="endArrow=none;html=1;entryX=0.5;entryY=0;entryDx=0;entryDy=0;" edge="1" parent="CwdzaLwRy5O3PZ2pQZOu-1" target="CwdzaLwRy5O3PZ2pQZOu-23">
          <mxGeometry width="50" height="50" relative="1" as="geometry">
            <mxPoint x="1520" y="240" as="sourcePoint" />
            <mxPoint x="1340" y="250" as="targetPoint" />
          </mxGeometry>
        </mxCell>
        <mxCell id="CwdzaLwRy5O3PZ2pQZOu-40" value="" style="endArrow=none;html=1;exitX=0.5;exitY=1;exitDx=0;exitDy=0;entryX=0.5;entryY=0;entryDx=0;entryDy=0;entryPerimeter=0;" edge="1" parent="CwdzaLwRy5O3PZ2pQZOu-1" source="CwdzaLwRy5O3PZ2pQZOu-17" target="CwdzaLwRy5O3PZ2pQZOu-18">
          <mxGeometry width="50" height="50" relative="1" as="geometry">
            <mxPoint x="910" y="300" as="sourcePoint" />
            <mxPoint x="960" y="250" as="targetPoint" />
          </mxGeometry>
        </mxCell>
        <mxCell id="CwdzaLwRy5O3PZ2pQZOu-41" value="" style="endArrow=none;html=1;exitX=0.5;exitY=1;exitDx=0;exitDy=0;entryX=0.5;entryY=0;entryDx=0;entryDy=0;" edge="1" parent="CwdzaLwRy5O3PZ2pQZOu-1" source="CwdzaLwRy5O3PZ2pQZOu-13" target="CwdzaLwRy5O3PZ2pQZOu-15">
          <mxGeometry width="50" height="50" relative="1" as="geometry">
            <mxPoint x="910" y="300" as="sourcePoint" />
            <mxPoint x="960" y="250" as="targetPoint" />
          </mxGeometry>
        </mxCell>
        <mxCell id="CwdzaLwRy5O3PZ2pQZOu-42" value="" style="endArrow=none;html=1;exitX=0.5;exitY=1;exitDx=0;exitDy=0;" edge="1" parent="CwdzaLwRy5O3PZ2pQZOu-1" source="CwdzaLwRy5O3PZ2pQZOu-9">
          <mxGeometry width="50" height="50" relative="1" as="geometry">
            <mxPoint x="800" y="100" as="sourcePoint" />
            <mxPoint x="960" y="80" as="targetPoint" />
          </mxGeometry>
        </mxCell>
      </root>
    </mxGraphModel>
  </diagram>
</mxfile>
